<mxfile host="app.diagrams.net" modified="2024-04-16T13:43:20.236Z" agent="Mozilla/5.0 (Windows NT 10.0; Win64; x64; rv:124.0) Gecko/20100101 Firefox/124.0" version="24.2.5" etag="0C8nGHzVapuW0MPlWlYu" type="github">
  <diagram name="Page-1" id="CJWYQN5rpuT6dZ4vVbbg">
    <mxGraphModel>
      <root>
        <mxCell id="0" />
        <mxCell id="1" parent="0" />
      </root>
    </mxGraphModel>
  </diagram>
</mxfile>
